<mxfile host="app.diagrams.net" modified="2023-10-29T05:58:41.242Z" agent="Mozilla/5.0 (Windows NT 10.0; Win64; x64) AppleWebKit/537.36 (KHTML, like Gecko) Chrome/118.0.0.0 Safari/537.36" etag="ykRMh2Icx6YIta3lIrmX" version="22.0.8" type="github">
  <diagram name="Page-1" id="2cc2dc42-3aac-f2a9-1cec-7a8b7cbee084">
    <mxGraphModel dx="1050" dy="542" grid="1" gridSize="10" guides="1" tooltips="1" connect="1" arrows="1" fold="1" page="1" pageScale="1" pageWidth="1100" pageHeight="850" background="none" math="0" shadow="0">
      <root>
        <mxCell id="0" />
        <mxCell id="1" parent="0" />
        <mxCell id="7026571954dc6520-1" value="" style="strokeWidth=1;shadow=0;dashed=0;align=center;html=1;shape=mxgraph.mockup.containers.browserWindow;rSize=0;strokeColor=#666666;mainText=,;recursiveResize=0;rounded=0;labelBackgroundColor=none;fontFamily=Verdana;fontSize=12" parent="1" vertex="1">
          <mxGeometry x="70" y="130" width="1180" height="3640" as="geometry" />
        </mxCell>
        <mxCell id="W-6Udg-J4N1rxeXs2Tqg-1" style="edgeStyle=orthogonalEdgeStyle;rounded=0;orthogonalLoop=1;jettySize=auto;html=1;" edge="1" parent="7026571954dc6520-1" source="7026571954dc6520-2" target="7026571954dc6520-1">
          <mxGeometry relative="1" as="geometry" />
        </mxCell>
        <mxCell id="7026571954dc6520-2" value="Page 1" style="strokeWidth=1;shadow=0;dashed=0;align=center;html=1;shape=mxgraph.mockup.containers.anchor;fontSize=17;fontColor=#666666;align=left;" parent="7026571954dc6520-1" vertex="1">
          <mxGeometry x="60" y="12" width="90" height="26" as="geometry" />
        </mxCell>
        <mxCell id="7026571954dc6520-3" value="truthandfreedomchurch.com" style="strokeWidth=1;shadow=0;dashed=0;align=center;html=1;shape=mxgraph.mockup.containers.anchor;rSize=0;fontSize=17;fontColor=#666666;align=left;" parent="7026571954dc6520-1" vertex="1">
          <mxGeometry x="130" y="60" width="250" height="26" as="geometry" />
        </mxCell>
        <mxCell id="7026571954dc6520-12" value="Search" style="text;html=1;points=[];align=left;verticalAlign=top;spacingTop=-4;fontSize=15;fontFamily=Verdana" parent="7026571954dc6520-1" vertex="1">
          <mxGeometry x="830" y="110" width="145" height="30" as="geometry" />
        </mxCell>
        <mxCell id="W-6Udg-J4N1rxeXs2Tqg-2" value="" style="verticalLabelPosition=bottom;shadow=0;dashed=0;align=center;html=1;verticalAlign=top;strokeWidth=1;shape=mxgraph.mockup.navigation.pageControl;fillColor=#999999;strokeColor=#ddeeff;" vertex="1" parent="7026571954dc6520-1">
          <mxGeometry x="890" y="70" width="50" height="110" as="geometry" />
        </mxCell>
        <mxCell id="W-6Udg-J4N1rxeXs2Tqg-7" value="Home" style="rounded=0;whiteSpace=wrap;html=1;" vertex="1" parent="7026571954dc6520-1">
          <mxGeometry x="15" y="110" width="65" height="30" as="geometry" />
        </mxCell>
        <mxCell id="W-6Udg-J4N1rxeXs2Tqg-11" value="Small Groups" style="rounded=0;whiteSpace=wrap;html=1;" vertex="1" parent="7026571954dc6520-1">
          <mxGeometry x="80" y="110" width="80" height="30" as="geometry" />
        </mxCell>
        <mxCell id="W-6Udg-J4N1rxeXs2Tqg-12" value="About" style="rounded=0;whiteSpace=wrap;html=1;" vertex="1" parent="7026571954dc6520-1">
          <mxGeometry x="160" y="110" width="60" height="30" as="geometry" />
        </mxCell>
        <mxCell id="W-6Udg-J4N1rxeXs2Tqg-13" value="Events" style="rounded=0;whiteSpace=wrap;html=1;" vertex="1" parent="7026571954dc6520-1">
          <mxGeometry x="220" y="110" width="70" height="30" as="geometry" />
        </mxCell>
        <mxCell id="W-6Udg-J4N1rxeXs2Tqg-14" value="Leadership" style="rounded=0;whiteSpace=wrap;html=1;" vertex="1" parent="7026571954dc6520-1">
          <mxGeometry x="290" y="110" width="80" height="30" as="geometry" />
        </mxCell>
        <mxCell id="W-6Udg-J4N1rxeXs2Tqg-15" value="Contact" style="rounded=0;whiteSpace=wrap;html=1;" vertex="1" parent="7026571954dc6520-1">
          <mxGeometry x="370" y="110" width="80" height="30" as="geometry" />
        </mxCell>
        <mxCell id="W-6Udg-J4N1rxeXs2Tqg-16" value="Blog" style="rounded=0;whiteSpace=wrap;html=1;" vertex="1" parent="7026571954dc6520-1">
          <mxGeometry x="450" y="110" width="60" height="30" as="geometry" />
        </mxCell>
        <mxCell id="7026571954dc6520-4" value="&lt;font style=&quot;font-size: 48px;&quot;&gt;Truth &amp;amp;&lt;br&gt;&amp;nbsp; &amp;nbsp; &amp;nbsp;Freedom&lt;br&gt;&amp;nbsp; &amp;nbsp; &amp;nbsp;Church&amp;nbsp;&lt;/font&gt;" style="text;html=1;points=[];align=left;verticalAlign=top;spacingTop=-4;fontSize=30;fontFamily=Verdana" parent="7026571954dc6520-1" vertex="1">
          <mxGeometry x="415" y="260" width="360" height="150" as="geometry" />
        </mxCell>
        <mxCell id="W-6Udg-J4N1rxeXs2Tqg-18" value="" style="verticalLabelPosition=bottom;shadow=0;dashed=0;align=center;html=1;verticalAlign=top;strokeWidth=1;shape=mxgraph.mockup.graphics.simpleIcon;strokeColor=#999999;" vertex="1" parent="7026571954dc6520-1">
          <mxGeometry x="280" y="460" width="280" height="240" as="geometry" />
        </mxCell>
        <mxCell id="W-6Udg-J4N1rxeXs2Tqg-19" value="" style="verticalLabelPosition=bottom;shadow=0;dashed=0;align=center;html=1;verticalAlign=top;strokeWidth=1;shape=mxgraph.mockup.graphics.simpleIcon;strokeColor=#999999;" vertex="1" parent="7026571954dc6520-1">
          <mxGeometry x="560" y="460" width="280" height="240" as="geometry" />
        </mxCell>
        <mxCell id="W-6Udg-J4N1rxeXs2Tqg-20" value="&lt;p style=&quot;background: transparent; border: 0px; outline: 0px; padding: 0px; vertical-align: baseline; pointer-events: auto; font-size: 19px; color: rgb(var(--color_15)); margin-block: 0px; margin: 0px;&quot; class=&quot;font_8 wixui-rich-text__text&quot;&gt;&quot;The Spirit of the LORD&amp;nbsp;Me, Because He has anointed Me to preach the gospel to&amp;nbsp;poor; He has sent Me to heal the brokenhearted, to proclaim liberty to&amp;nbsp;captives and recovery of sight to&amp;nbsp;blind, to set at liberty those who are oppressed&quot;&lt;span style=&quot;background: transparent; border: 0px; margin: 0px; outline: 0px; padding: 0px; vertical-align: baseline; font-style: italic;&quot; class=&quot;wixui-rich-text__text&quot;&gt;&amp;nbsp;&lt;/span&gt;&lt;span style=&quot;background: transparent; border: 0px; margin: 0px; outline: 0px; padding: 0px; vertical-align: baseline; font-family: rubik-medium, sans-serif;&quot; class=&quot;wixui-rich-text__text&quot;&gt;&lt;/span&gt;&lt;/p&gt;&lt;p style=&quot;background: transparent; border: 0px; outline: 0px; padding: 0px; vertical-align: baseline; pointer-events: auto; font-size: 22px; color: rgb(var(--color_15)); margin-block: 0px; margin: 0px;&quot; class=&quot;font_8 wixui-rich-text__text&quot;&gt;&lt;span style=&quot;background: transparent; border: 0px; margin: 0px; outline: 0px; padding: 0px; vertical-align: baseline;&quot; class=&quot;wixui-rich-text__text&quot;&gt;&lt;span style=&quot;background: transparent; border: 0px; margin: 0px; outline: 0px; padding: 0px; vertical-align: baseline; font-family: &amp;quot;suez one&amp;quot;, serif;&quot; class=&quot;wixui-rich-text__text&quot;&gt;Luke 4:18&lt;/span&gt;&lt;/span&gt;&lt;/p&gt;" style="rounded=0;whiteSpace=wrap;html=1;" vertex="1" parent="7026571954dc6520-1">
          <mxGeometry x="360" y="740" width="470" height="240" as="geometry" />
        </mxCell>
        <mxCell id="W-6Udg-J4N1rxeXs2Tqg-21" value="&lt;h2 style=&quot;background: transparent; border: 0px; outline: 0px; padding: 0px; vertical-align: baseline; pointer-events: auto; font-size: 42px; line-height: 1.25em; color: rgb(var(--color_15)); margin-block: 0px; margin: 0px;&quot; class=&quot;font_2 wixui-rich-text__text&quot;&gt;Welcome&lt;br class=&quot;wixui-rich-text__text&quot;&gt;to&lt;br class=&quot;wixui-rich-text__text&quot;&gt;Truth &amp;amp; Freedom Church&lt;/h2&gt;" style="rounded=0;whiteSpace=wrap;html=1;" vertex="1" parent="7026571954dc6520-1">
          <mxGeometry x="360" y="1040" width="480" height="190" as="geometry" />
        </mxCell>
        <mxCell id="W-6Udg-J4N1rxeXs2Tqg-25" value="&lt;p style=&quot;background: transparent; border: 0px; outline: 0px; padding: 0px; vertical-align: baseline; pointer-events: auto; font-size: 14px; line-height: 1.875em; color: rgb(var(--color_15)); margin-block: 0px; margin: 0px;&quot; class=&quot;font_9 wixui-rich-text__text&quot;&gt;&lt;span style=&quot;background: transparent; border: 0px; margin: 0px; outline: 0px; padding: 0px; vertical-align: baseline; font-family: anton, sans-serif;&quot; class=&quot;wixui-rich-text__text&quot;&gt;&lt;/span&gt;&lt;/p&gt;&lt;p style=&quot;background: transparent; border: 0px; outline: 0px; padding: 0px; vertical-align: baseline; pointer-events: auto; font-size: 15px; line-height: 1.875em; color: rgb(var(--color_15)); margin-block: 0px; margin: 0px;&quot; class=&quot;font_9 wixui-rich-text__text&quot;&gt;&lt;span style=&quot;background: transparent; border: 0px; margin: 0px; outline: 0px; padding: 0px; vertical-align: baseline;&quot; class=&quot;wixui-rich-text__text&quot;&gt;&lt;b&gt;Location:&lt;/b&gt;&lt;/span&gt;&lt;/p&gt;&lt;p style=&quot;background: transparent; border: 0px; outline: 0px; padding: 0px; vertical-align: baseline; pointer-events: auto; font-size: 15px; line-height: 1.875em; color: rgb(var(--color_15)); margin-block: 0px; margin: 0px;&quot; class=&quot;font_9 wixui-rich-text__text&quot;&gt;&lt;span style=&quot;background: transparent; border: 0px; margin: 0px; outline: 0px; padding: 0px; vertical-align: baseline;&quot; class=&quot;wixui-rich-text__text&quot;&gt;3300 University Ave SE Mpls, MN 55414&lt;/span&gt;&lt;/p&gt;&lt;p style=&quot;background: transparent; border: 0px; outline: 0px; padding: 0px; vertical-align: baseline; pointer-events: auto; font-size: 15px; line-height: 1.875em; color: rgb(var(--color_15)); margin-block: 0px; margin: 0px;&quot; class=&quot;font_9 wixui-rich-text__text&quot;&gt;&amp;nbsp;&lt;/p&gt;&lt;p style=&quot;background: transparent; border: 0px; outline: 0px; padding: 0px; vertical-align: baseline; pointer-events: auto; font-size: 14px; line-height: 1.875em; color: rgb(var(--color_15)); margin-block: 0px; margin: 0px;&quot; class=&quot;font_9 wixui-rich-text__text&quot;&gt;&lt;span style=&quot;background: transparent; border: 0px; margin: 0px; outline: 0px; padding: 0px; vertical-align: baseline; font-family: anton, sans-serif;&quot; class=&quot;wixui-rich-text__text&quot;&gt;&lt;span style=&quot;background: transparent; border: 0px; margin: 0px; outline: 0px; padding: 0px; vertical-align: baseline;&quot; class=&quot;wixui-rich-text__text&quot;&gt;&lt;span style=&quot;background: transparent; border: 0px; margin: 0px; outline: 0px; padding: 0px; vertical-align: baseline; font-weight: bold;&quot; class=&quot;wixui-rich-text__text&quot;&gt;SERVICE TIMES:&lt;/span&gt;&lt;/span&gt;&lt;/span&gt;&lt;/p&gt;&lt;p style=&quot;background: transparent; border: 0px; outline: 0px; padding: 0px; vertical-align: baseline; pointer-events: auto; font-size: 15px; line-height: 1.875em; color: rgb(var(--color_15)); margin-block: 0px; margin: 0px;&quot; class=&quot;font_9 wixui-rich-text__text&quot;&gt;&lt;span style=&quot;background: transparent; border: 0px; margin: 0px; outline: 0px; padding: 0px; vertical-align: baseline;&quot; class=&quot;wixui-rich-text__text&quot;&gt;Church service is every Friday Night 6:30pm&amp;nbsp;&lt;/span&gt;&lt;/p&gt;&lt;p style=&quot;background: transparent; border: 0px; outline: 0px; padding: 0px; vertical-align: baseline; pointer-events: auto; font-size: 15px; line-height: 1.875em; color: rgb(var(--color_15)); margin-block: 0px; margin: 0px;&quot; class=&quot;font_9 wixui-rich-text__text&quot;&gt;&lt;span style=&quot;background: transparent; border: 0px; margin: 0px; outline: 0px; padding: 0px; vertical-align: baseline;&quot; class=&quot;wixGuard wixui-rich-text__text&quot;&gt;​&lt;/span&gt;&lt;/p&gt;&lt;p style=&quot;background: transparent; border: 0px; outline: 0px; padding: 0px; vertical-align: baseline; pointer-events: auto; font-size: 15px; line-height: 1.875em; color: rgb(var(--color_15)); margin-block: 0px; margin: 0px;&quot; class=&quot;font_9 wixui-rich-text__text&quot;&gt;&lt;span style=&quot;background: transparent; border: 0px; margin: 0px; outline: 0px; padding: 0px; vertical-align: baseline; font-family: anton, sans-serif;&quot; class=&quot;wixui-rich-text__text&quot;&gt;&lt;span style=&quot;background: transparent; border: 0px; margin: 0px; outline: 0px; padding: 0px; vertical-align: baseline; font-size: 14px;&quot; class=&quot;wixui-rich-text__text&quot;&gt;&lt;span style=&quot;background: transparent; border: 0px; margin: 0px; outline: 0px; padding: 0px; vertical-align: baseline; font-weight: bold;&quot; class=&quot;wixui-rich-text__text&quot;&gt;GROUPS&amp;nbsp;&lt;/span&gt;&lt;/span&gt;&lt;/span&gt;&lt;/p&gt;&lt;p style=&quot;background: transparent; border: 0px; outline: 0px; padding: 0px; vertical-align: baseline; pointer-events: auto; font-size: 15px; line-height: 1.875em; color: rgb(var(--color_15)); margin-block: 0px; margin: 0px;&quot; class=&quot;font_9 wixui-rich-text__text&quot;&gt;Recovery Group is Wednesday Nights&amp;nbsp; &amp;nbsp; &amp;nbsp;6:00 -7:30pm&lt;/p&gt;&lt;p style=&quot;background: transparent; border: 0px; outline: 0px; padding: 0px; vertical-align: baseline; pointer-events: auto; font-size: 15px; line-height: 1.875em; color: rgb(var(--color_15)); margin-block: 0px; margin: 0px;&quot; class=&quot;font_9 wixui-rich-text__text&quot;&gt;&lt;span style=&quot;background: transparent; border: 0px; margin: 0px; outline: 0px; padding: 0px; vertical-align: baseline;&quot; class=&quot;wixui-rich-text__text&quot;&gt;&amp;nbsp;Discipleship Group is Tuesday Nights&amp;nbsp; &amp;nbsp; &amp;nbsp; &amp;nbsp;6:00 -7:30pm&lt;/span&gt;&lt;/p&gt;&lt;p style=&quot;background: transparent; border: 0px; outline: 0px; padding: 0px; vertical-align: baseline; pointer-events: auto; font-size: 15px; line-height: 1.875em; color: rgb(var(--color_15)); margin-block: 0px; margin: 0px;&quot; class=&quot;font_9 wixui-rich-text__text&quot;&gt;&lt;span style=&quot;background: transparent; border: 0px; margin: 0px; outline: 0px; padding: 0px; vertical-align: baseline;&quot; class=&quot;wixui-rich-text__text&quot;&gt;&amp;nbsp;&lt;/span&gt;&lt;/p&gt;&lt;p style=&quot;background: transparent; border: 0px; outline: 0px; padding: 0px; vertical-align: baseline; pointer-events: auto; font-size: 14px; line-height: 1.875em; color: rgb(var(--color_15)); margin-block: 0px; margin: 0px;&quot; class=&quot;font_9 wixui-rich-text__text&quot;&gt;&amp;nbsp;&lt;/p&gt;&lt;p style=&quot;background: transparent; border: 0px; outline: 0px; padding: 0px; vertical-align: baseline; pointer-events: auto; font-size: 14px; line-height: 1.875em; color: rgb(var(--color_15)); margin-block: 0px; margin: 0px;&quot; class=&quot;font_9 wixui-rich-text__text&quot;&gt;&lt;span style=&quot;background: transparent; border: 0px; margin: 0px; outline: 0px; padding: 0px; vertical-align: baseline; font-family: anton, sans-serif;&quot; class=&quot;wixui-rich-text__text&quot;&gt;&lt;span style=&quot;background: transparent; border: 0px; margin: 0px; outline: 0px; padding: 0px; vertical-align: baseline;&quot; class=&quot;wixui-rich-text__text&quot;&gt;&lt;span style=&quot;background: transparent; border: 0px; margin: 0px; outline: 0px; padding: 0px; vertical-align: baseline; font-weight: bold;&quot; class=&quot;wixui-rich-text__text&quot;&gt;PARKING:&lt;/span&gt;&lt;/span&gt;&lt;/span&gt;&lt;/p&gt;&lt;p style=&quot;background: transparent; border: 0px; outline: 0px; padding: 0px; vertical-align: baseline; pointer-events: auto; font-size: 15px; line-height: 1.875em; color: rgb(var(--color_15)); margin-block: 0px; margin: 0px;&quot; class=&quot;font_9 wixui-rich-text__text&quot;&gt;&lt;span style=&quot;background: transparent; border: 0px; margin: 0px; outline: 0px; padding: 0px; vertical-align: baseline;&quot; class=&quot;wixui-rich-text__text&quot;&gt;Onsite, across street at Valhalla Place/Alliance Clinic building, and street parking&lt;/span&gt;&lt;/p&gt;" style="rounded=0;whiteSpace=wrap;html=1;" vertex="1" parent="7026571954dc6520-1">
          <mxGeometry x="330" y="1460" width="540" height="380" as="geometry" />
        </mxCell>
        <mxCell id="W-6Udg-J4N1rxeXs2Tqg-37" value="" style="line;strokeWidth=2;html=1;" vertex="1" parent="7026571954dc6520-1">
          <mxGeometry y="2480" width="1050" height="10" as="geometry" />
        </mxCell>
        <mxCell id="W-6Udg-J4N1rxeXs2Tqg-38" value="&lt;font style=&quot;font-size: 18px;&quot;&gt;&lt;b&gt;&amp;nbsp; &amp;nbsp;Donate to &lt;br&gt;&amp;nbsp; &amp;nbsp; &amp;nbsp; &amp;nbsp; &amp;nbsp; &amp;nbsp; &amp;nbsp; &amp;nbsp; &amp;nbsp; Truth and Freedom Church&lt;br&gt;&lt;/b&gt;&lt;br&gt;&lt;/font&gt;" style="rounded=0;whiteSpace=wrap;html=1;" vertex="1" parent="7026571954dc6520-1">
          <mxGeometry x="50" y="2510" width="280" height="160" as="geometry" />
        </mxCell>
        <mxCell id="W-6Udg-J4N1rxeXs2Tqg-40" value="&lt;b&gt;&lt;font style=&quot;font-size: 18px;&quot;&gt;Donate&lt;/font&gt;&lt;/b&gt;" style="rounded=0;whiteSpace=wrap;html=1;" vertex="1" parent="7026571954dc6520-1">
          <mxGeometry x="790" y="2530" width="120" height="60" as="geometry" />
        </mxCell>
        <mxCell id="W-6Udg-J4N1rxeXs2Tqg-41" value="" style="verticalLabelPosition=bottom;shadow=0;dashed=0;align=center;html=1;verticalAlign=top;strokeWidth=1;shape=mxgraph.mockup.graphics.simpleIcon;strokeColor=#999999;" vertex="1" parent="7026571954dc6520-1">
          <mxGeometry x="50" y="2910" width="440" height="620" as="geometry" />
        </mxCell>
        <mxCell id="W-6Udg-J4N1rxeXs2Tqg-42" value="&lt;div style=&quot;background: transparent; border: 0px; margin: 125px 0px 16px calc((100% - 490px) * 0.5); outline: 0px; padding: 0px; vertical-align: baseline; pointer-events: none; direction: var(--text-direction); min-height: var(--min-height); min-width: var(--min-width); overflow-wrap: break-word; text-align: start; position: relative; left: 15px; grid-area: 1 / 1 / 2 / 2; place-self: start; width: 460px; height: auto; font-family: Arial, Helvetica, sans-serif; font-size: 10px;&quot; data-testid=&quot;richTextElement&quot; class=&quot;BaOVQ8 tz5f0K comp-l9fy8kf7 wixui-rich-text&quot; id=&quot;comp-l9fy8kf7&quot;&gt;&lt;h2 style=&quot;background: transparent; border: 0px; outline: 0px; padding: 0px; vertical-align: baseline; pointer-events: auto; font-size: 40px; line-height: 1.35em; color: rgb(var(--color_15)); margin-block: 0px; margin: 0px; text-align: center;&quot; class=&quot;font_6 wixui-rich-text__text&quot;&gt;Contact Us&lt;/h2&gt;&lt;/div&gt;&lt;div style=&quot;background: transparent; border: 0px; margin: 0px 0px 7px calc((100% - 490px) * 0.5); outline: 0px; padding: 0px; vertical-align: baseline; pointer-events: none; direction: var(--text-direction); min-height: var(--min-height); min-width: var(--min-width); overflow-wrap: break-word; text-align: start; position: relative; left: 15px; grid-area: 2 / 1 / 3 / 2; place-self: start; width: 460px; height: auto; font-family: Arial, Helvetica, sans-serif; font-size: 10px;&quot; data-testid=&quot;richTextElement&quot; class=&quot;KcpHeO tz5f0K comp-l9fy8kf8 wixui-rich-text&quot; id=&quot;comp-l9fy8kf8&quot;&gt;&lt;p style=&quot;background: transparent; border: 0px; outline: 0px; padding: 0px; vertical-align: baseline; pointer-events: auto; font-style: ; font-variant-ligatures: ; font-variant-caps: ; font-variant-numeric: ; font-variant-east-asian: ; font-variant-alternates: ; font-variant-position: ; font-weight: ; font-stretch: ; font-size: 15px; line-height: 1.875em; font-family: ; font-optical-sizing: ; font-kerning: ; font-feature-settings: ; font-variation-settings: ; color: rgb(var(--color_15)); letter-spacing: 0em; margin-block: 0px; margin: 0px; text-align: center;&quot; class=&quot;font_9 wixui-rich-text__text&quot;&gt;&lt;span style=&quot;background: transparent; border: 0px; margin: 0px; outline: 0px; padding: 0px; vertical-align: baseline;&quot; class=&quot;wixui-rich-text__text&quot;&gt;Truth &amp;amp; Freedom Church&lt;/span&gt;&lt;/p&gt;&lt;p style=&quot;background: transparent; border: 0px; outline: 0px; padding: 0px; vertical-align: baseline; pointer-events: auto; font-style: ; font-variant-ligatures: ; font-variant-caps: ; font-variant-numeric: ; font-variant-east-asian: ; font-variant-alternates: ; font-variant-position: ; font-weight: ; font-stretch: ; font-size: 15px; line-height: 1.875em; font-family: ; font-optical-sizing: ; font-kerning: ; font-feature-settings: ; font-variation-settings: ; color: rgb(var(--color_15)); letter-spacing: 0em; margin-block: 0px; margin: 0px; text-align: center;&quot; class=&quot;font_9 wixui-rich-text__text&quot;&gt;&lt;span style=&quot;background: transparent; border: 0px; margin: 0px; outline: 0px; padding: 0px; vertical-align: baseline;&quot; class=&quot;wixui-rich-text__text&quot;&gt;3300 University Ave SE,&lt;/span&gt;&lt;/p&gt;&lt;p style=&quot;background: transparent; border: 0px; outline: 0px; padding: 0px; vertical-align: baseline; pointer-events: auto; font-style: ; font-variant-ligatures: ; font-variant-caps: ; font-variant-numeric: ; font-variant-east-asian: ; font-variant-alternates: ; font-variant-position: ; font-weight: ; font-stretch: ; font-size: 15px; line-height: 1.875em; font-family: ; font-optical-sizing: ; font-kerning: ; font-feature-settings: ; font-variation-settings: ; color: rgb(var(--color_15)); letter-spacing: 0em; margin-block: 0px; margin: 0px; text-align: center;&quot; class=&quot;font_9 wixui-rich-text__text&quot;&gt;&lt;span style=&quot;background: transparent; border: 0px; margin: 0px; outline: 0px; padding: 0px; vertical-align: baseline;&quot; class=&quot;wixui-rich-text__text&quot;&gt;Minneapolis MN 55414&lt;/span&gt;&lt;/p&gt;&lt;/div&gt;" style="rounded=0;whiteSpace=wrap;html=1;" vertex="1" parent="7026571954dc6520-1">
          <mxGeometry x="600" y="2850" width="440" height="90" as="geometry" />
        </mxCell>
        <mxCell id="W-6Udg-J4N1rxeXs2Tqg-44" value="" style="rounded=0;whiteSpace=wrap;html=1;" vertex="1" parent="7026571954dc6520-1">
          <mxGeometry x="840" y="3080" width="160" height="40" as="geometry" />
        </mxCell>
        <mxCell id="W-6Udg-J4N1rxeXs2Tqg-43" value="" style="rounded=0;whiteSpace=wrap;html=1;" vertex="1" parent="7026571954dc6520-1">
          <mxGeometry x="660" y="3080" width="160" height="40" as="geometry" />
        </mxCell>
        <mxCell id="W-6Udg-J4N1rxeXs2Tqg-45" value="" style="rounded=0;whiteSpace=wrap;html=1;" vertex="1" parent="7026571954dc6520-1">
          <mxGeometry x="660" y="3140" width="160" height="40" as="geometry" />
        </mxCell>
        <mxCell id="W-6Udg-J4N1rxeXs2Tqg-46" value="" style="rounded=0;whiteSpace=wrap;html=1;" vertex="1" parent="7026571954dc6520-1">
          <mxGeometry x="840" y="3140" width="160" height="40" as="geometry" />
        </mxCell>
        <mxCell id="W-6Udg-J4N1rxeXs2Tqg-47" value="" style="rounded=0;whiteSpace=wrap;html=1;" vertex="1" parent="7026571954dc6520-1">
          <mxGeometry x="660" y="3200" width="340" height="40" as="geometry" />
        </mxCell>
        <mxCell id="W-6Udg-J4N1rxeXs2Tqg-48" value="" style="rounded=0;whiteSpace=wrap;html=1;" vertex="1" parent="7026571954dc6520-1">
          <mxGeometry x="660" y="3260" width="340" height="170" as="geometry" />
        </mxCell>
        <mxCell id="W-6Udg-J4N1rxeXs2Tqg-49" value="&lt;b&gt;&lt;font style=&quot;font-size: 18px;&quot;&gt;Submit&lt;/font&gt;&lt;/b&gt;" style="rounded=0;whiteSpace=wrap;html=1;" vertex="1" parent="7026571954dc6520-1">
          <mxGeometry x="660" y="3470" width="340" height="40" as="geometry" />
        </mxCell>
        <mxCell id="W-6Udg-J4N1rxeXs2Tqg-50" value="" style="verticalLabelPosition=bottom;shadow=0;dashed=0;align=center;html=1;verticalAlign=top;strokeWidth=1;shape=mxgraph.mockup.containers.userMale;strokeColor=#666666;strokeColor2=#008cff;" vertex="1" parent="7026571954dc6520-1">
          <mxGeometry x="180" y="2010" width="260" height="300" as="geometry" />
        </mxCell>
        <mxCell id="W-6Udg-J4N1rxeXs2Tqg-51" value="" style="ellipse;whiteSpace=wrap;html=1;aspect=fixed;" vertex="1" parent="7026571954dc6520-1">
          <mxGeometry x="860" y="150" width="40" height="40" as="geometry" />
        </mxCell>
        <mxCell id="W-6Udg-J4N1rxeXs2Tqg-52" value="" style="verticalLabelPosition=bottom;shadow=0;dashed=0;align=center;html=1;verticalAlign=top;strokeWidth=1;shape=mxgraph.mockup.containers.userMale;strokeColor=#666666;strokeColor2=#008cff;" vertex="1" parent="7026571954dc6520-1">
          <mxGeometry x="865" y="155" width="30" height="30" as="geometry" />
        </mxCell>
        <mxCell id="W-6Udg-J4N1rxeXs2Tqg-53" value="Log In" style="rounded=0;whiteSpace=wrap;html=1;" vertex="1" parent="7026571954dc6520-1">
          <mxGeometry x="910" y="155" width="90" height="30" as="geometry" />
        </mxCell>
        <mxCell id="W-6Udg-J4N1rxeXs2Tqg-54" value="" style="sketch=0;html=1;aspect=fixed;strokeColor=none;shadow=0;fillColor=#3B8DF1;verticalAlign=top;labelPosition=center;verticalLabelPosition=bottom;shape=mxgraph.gcp2.search" vertex="1" parent="7026571954dc6520-1">
          <mxGeometry x="800.2" y="110" width="19.8" height="20" as="geometry" />
        </mxCell>
        <mxCell id="W-6Udg-J4N1rxeXs2Tqg-55" value="" style="line;strokeWidth=2;html=1;" vertex="1" parent="7026571954dc6520-1">
          <mxGeometry x="10" y="130" width="1170" height="30" as="geometry" />
        </mxCell>
        <mxCell id="W-6Udg-J4N1rxeXs2Tqg-27" value="&lt;b&gt;&lt;font style=&quot;font-size: 18px;&quot;&gt;Pastor:_____________&lt;/font&gt;&lt;/b&gt;" style="rounded=0;whiteSpace=wrap;html=1;" vertex="1" parent="1">
          <mxGeometry x="460" y="2020" width="310" height="80" as="geometry" />
        </mxCell>
        <mxCell id="W-6Udg-J4N1rxeXs2Tqg-35" value="&lt;p style=&quot;border: 0px; color: rgb(var(--color_15)); background: transparent; outline: 0px; padding: 0px; vertical-align: baseline; pointer-events: auto; font-size: 15px; line-height: 1.875em; margin-block: 0px; margin: 0px;&quot; class=&quot;font_9 wixui-rich-text__text&quot;&gt;&lt;b style=&quot;border-color: var(--border-color);&quot;&gt;Who we are:&lt;/b&gt;&lt;/p&gt;&lt;p style=&quot;border: 0px; color: rgb(var(--color_15)); background: transparent; outline: 0px; padding: 0px; vertical-align: baseline; pointer-events: auto; font-size: 15px; line-height: 1.875em; margin-block: 0px; margin: 0px;&quot; class=&quot;font_9 wixui-rich-text__text&quot;&gt;&lt;span style=&quot;border: 0px; background: transparent; margin: 0px; outline: 0px; padding: 0px; vertical-align: baseline; color: rgb(var(--color_15));&quot; class=&quot;color_15 wixui-rich-text__text&quot;&gt;We are a non-denominational, Christ-centered church geared towards people in recovery&amp;nbsp;&lt;span style=&quot;border: 0px; background: transparent; margin: 0px; outline: 0px; padding: 0px; vertical-align: baseline;&quot; class=&quot;wixui-rich-text__text&quot;&gt;but&amp;nbsp;&lt;/span&gt;everyone has hurts&lt;/span&gt;&lt;span style=&quot;border: 0px; background: transparent; margin: 0px; outline: 0px; padding: 0px; vertical-align: baseline; color: rgb(var(--color_15));&quot; class=&quot;color_15 wixui-rich-text__text&quot;&gt;&amp;nbsp;from life and are recovering from something. ​We welcome all people; regardless of background; from the churched to the unchurched.&amp;nbsp;&lt;span style=&quot;border: 0px; background: transparent; margin: 0px; outline: 0px; padding: 0px; vertical-align: baseline;&quot; class=&quot;wixui-rich-text__text&quot;&gt;Come experience the &quot;Living Jesus&quot;&lt;/span&gt;&lt;/span&gt;&lt;/p&gt;" style="rounded=0;whiteSpace=wrap;html=1;" vertex="1" parent="1">
          <mxGeometry x="410" y="1400" width="500" height="170" as="geometry" />
        </mxCell>
        <mxCell id="W-6Udg-J4N1rxeXs2Tqg-36" value="" style="rounded=0;whiteSpace=wrap;html=1;" vertex="1" parent="1">
          <mxGeometry x="550" y="2170" width="380" height="240" as="geometry" />
        </mxCell>
        <mxCell id="W-6Udg-J4N1rxeXs2Tqg-39" value="&lt;p style=&quot;background: transparent; border: 0px; outline: 0px; padding: 0px; vertical-align: baseline; pointer-events: auto; font-size: 15px; line-height: 1.875em; color: rgb(var(--color_15)); margin-block: 0px; margin: 0px; text-align: start;&quot; class=&quot;font_9 wixui-rich-text__text&quot;&gt;&lt;span style=&quot;background: transparent; border: 0px; margin: 0px; outline: 0px; padding: 0px; vertical-align: baseline; color: rgb(var(--color_15));&quot; class=&quot;color_15 wixui-rich-text__text&quot;&gt;&lt;/span&gt;&lt;/p&gt;&lt;p style=&quot;background: transparent; border: 0px; outline: 0px; padding: 0px; vertical-align: baseline; pointer-events: auto; font-size: 15px; line-height: 1.875em; color: rgb(var(--color_15)); margin-block: 0px; margin: 0px; text-align: start;&quot; class=&quot;font_9 wixui-rich-text__text&quot;&gt;&lt;br&gt;&lt;/p&gt;&lt;p style=&quot;background: transparent; border: 0px; outline: 0px; padding: 0px; vertical-align: baseline; pointer-events: auto; font-size: 15px; line-height: 1.875em; color: rgb(var(--color_15)); margin-block: 0px; margin: 0px; text-align: start;&quot; class=&quot;font_9 wixui-rich-text__text&quot;&gt;&lt;span style=&quot;background: transparent; border: 0px; margin: 0px; outline: 0px; padding: 0px; vertical-align: baseline; color: rgb(var(--color_15));&quot; class=&quot;color_15 wixui-rich-text__text&quot;&gt;&lt;span style=&quot;background: transparent; border: 0px; margin: 0px; outline: 0px; padding: 0px; vertical-align: baseline; font-weight: bold;&quot; class=&quot;wixui-rich-text__text&quot;&gt;Support us with your giving which goes towards the Church, Events, T&lt;/span&gt;&lt;span style=&quot;background: transparent; border: 0px; margin: 0px; outline: 0px; padding: 0px; vertical-align: baseline; font-weight: 700;&quot; class=&quot;wixui-rich-text__text&quot;&gt;raining&#39;s&lt;/span&gt;&lt;span style=&quot;background: transparent; border: 0px; margin: 0px; outline: 0px; padding: 0px; vertical-align: baseline; font-weight: bold;&quot; class=&quot;wixui-rich-text__text&quot;&gt;, Freedom Encounters, &amp;amp; More!&lt;/span&gt;&lt;/span&gt;&lt;/p&gt;" style="rounded=0;whiteSpace=wrap;html=1;" vertex="1" parent="1">
          <mxGeometry x="120" y="2820" width="660" height="60" as="geometry" />
        </mxCell>
      </root>
    </mxGraphModel>
  </diagram>
</mxfile>
